<!-- <svg xmlns="http://www.w3.org/2000/svg" viewBox="0 0 841.9 595.3"><g fill="#61DAFB"><path d="M666.3 296.5c0-32.5-40.7-63.3-103.1-82.4 14.4-63.6 8-114.2-20.2-130.4-6.5-3.8-14.1-5.6-22.4-5.6v22.3c4.6 0 8.3.9 11.4 2.6 13.6 7.8 19.5 37.5 14.9 75.7-1.1 9.4-2.9 19.3-5.1 29.4-19.6-4.8-41-8.5-63.5-10.9-13.5-18.5-27.5-35.3-41.6-50 32.6-30.3 63.2-46.9 84-46.9V78c-27.5 0-63.5 19.6-99.9 53.6-36.4-33.8-72.4-53.2-99.9-53.2v22.3c20.7 0 51.4 16.5 84 46.6-14 14.7-28 31.4-41.3 49.9-22.6 2.4-44 6.1-63.6 11-2.3-10-4-19.7-5.2-29-4.7-38.2 1.1-67.9 14.6-75.8 3-1.8 6.9-2.6 11.5-2.6V78.5c-8.4 0-16 1.8-22.6 5.6-28.1 16.2-34.4 66.7-19.9 130.1-62.2 19.2-102.7 49.9-102.7 82.3 0 32.5 40.7 63.3 103.1 82.4-14.4 63.6-8 114.2 20.2 130.4 6.5 3.8 14.1 5.6 22.5 5.6 27.5 0 63.5-19.6 99.9-53.6 36.4 33.8 72.4 53.2 99.9 53.2 8.4 0 16-1.8 22.6-5.6 28.1-16.2 34.4-66.7 19.9-130.1 62-19.1 102.5-49.9 102.5-82.3zm-130.2-66.7c-3.7 12.9-8.3 26.2-13.5 39.5-4.1-8-8.4-16-13.1-24-4.6-8-9.5-15.8-14.4-23.4 14.2 2.1 27.9 4.7 41 7.9zm-45.8 106.5c-7.8 13.5-15.8 26.3-24.1 38.2-14.9 1.3-30 2-45.2 2-15.1 0-30.2-.7-45-1.9-8.3-11.9-16.4-24.6-24.2-38-7.6-13.1-14.5-26.4-20.8-39.8 6.2-13.4 13.2-26.8 20.7-39.9 7.8-13.5 15.8-26.3 24.1-38.2 14.9-1.3 30-2 45.2-2 15.1 0 30.2.7 45 1.9 8.3 11.9 16.4 24.6 24.2 38 7.6 13.1 14.5 26.4 20.8 39.8-6.3 13.4-13.2 26.8-20.7 39.9zm32.3-13c5.4 13.4 10 26.8 13.8 39.8-13.1 3.2-26.9 5.9-41.2 8 4.9-7.7 9.8-15.6 14.4-23.7 4.6-8 8.9-16.1 13-24.1zM421.2 430c-9.3-9.6-18.6-20.3-27.8-32 9 .4 18.2.7 27.5.7 9.4 0 18.7-.2 27.8-.7-9 11.7-18.3 22.4-27.5 32zm-74.4-58.9c-14.2-2.1-27.9-4.7-41-7.9 3.7-12.9 8.3-26.2 13.5-39.5 4.1 8 8.4 16 13.1 24 4.7 8 9.5 15.8 14.4 23.4zM420.7 163c9.3 9.6 18.6 20.3 27.8 32-9-.4-18.2-.7-27.5-.7-9.4 0-18.7.2-27.8.7 9-11.7 18.3-22.4 27.5-32zm-74 58.9c-4.9 7.7-9.8 15.6-14.4 23.7-4.6 8-8.9 16-13 24-5.4-13.4-10-26.8-13.8-39.8 13.1-3.1 26.9-5.8 41.2-7.9zm-90.5 125.2c-35.4-15.1-58.3-34.9-58.3-50.6 0-15.7 22.9-35.6 58.3-50.6 8.6-3.7 18-7 27.7-10.1 5.7 19.6 13.2 40 22.5 60.9-9.2 20.8-16.6 41.1-22.2 60.6-9.9-3.1-19.3-6.5-28-10.2zM310 490c-13.6-7.8-19.5-37.5-14.9-75.7 1.1-9.4 2.9-19.3 5.1-29.4 19.6 4.8 41 8.5 63.5 10.9 13.5 18.5 27.5 35.3 41.6 50-32.6 30.3-63.2 46.9-84 46.9-4.5-.1-8.3-1-11.3-2.7zm237.2-76.2c4.7 38.2-1.1 67.9-14.6 75.8-3 1.8-6.9 2.6-11.5 2.6-20.7 0-51.4-16.5-84-46.6 14-14.7 28-31.4 41.3-49.9 22.6-2.4 44-6.1 63.6-11 2.3 10.1 4.1 19.8 5.2 29.1zm38.5-66.7c-8.6 3.7-18 7-27.7 10.1-5.7-19.6-13.2-40-22.5-60.9 9.2-20.8 16.6-41.1 22.2-60.6 9.9 3.1 19.3 6.5 28.1 10.2 35.4 15.1 58.3 34.9 58.3 50.6-.1 15.7-23 35.6-58.4 50.6zM320.8 78.4z"/><circle cx="420.9" cy="296.5" r="45.7"/><path d="M520.5 78.1z"/></g></svg>
 --><svg xmlns="http://www.w3.org/2000/svg" xmlns:xlink="http://www.w3.org/1999/xlink" width="173px" height="34px" viewBox="0 0 173 34" version="1.1">
    <!-- Generator: Sketch 63.1 (92452) - https://sketch.com -->
    <title>Page 1</title>
    <desc>Created with Sketch.</desc>
    <g id="Page-1" stroke="none" stroke-width="1" fill="none" fill-rule="evenodd">
        <g id="Trial-comprar-plan---Checkout" transform="translate(-798.000000, -241.000000)">
            <g id="Page-1" transform="translate(798.000000, 241.000000)">
                <g>
                    <polygon id="Fill-1" fill="#444C5E" points="70.0202312 6.68388866 63.29958 26.7639655 59.6578182 26.7639655 54.015827 8.71570571 48.2728185 26.7639655 44.6747168 26.7639655 38.0837616 6.68388866 40.5715283 6.68388866 46.4523657 25.0293433 52.2647167 6.68388866 55.8024647 6.68388866 61.5488976 25.0293433 67.5671357 6.68388866"/>
                    <polygon id="Fill-2" fill="#444C5E" points="79.3795331 26.7644298 76.9641051 26.7644298 76.9641051 6.68393087 79.3795331 6.68393087"/>
                    <g id="Group-20">
                        <path d="M103.017169,12.221255 L100.670227,12.221255 C100.604737,11.1899379 100.46006,10.4127563 100.230631,9.89730885 C100.00591,9.38017278 99.6155376,9.01796646 99.0625104,8.80731267 C98.5103391,8.59581457 97.6816543,8.4902766 96.578168,8.4902766 L95.3471258,8.4902766 C93.1435775,8.4902766 91.6865304,8.70008609 90.9751284,9.11379494 C90.205085,9.55494366 89.8211334,10.4824114 89.8211334,11.8953537 C89.8211334,12.6877328 89.9016048,13.3205385 90.0612636,13.7925043 C90.2252028,14.2648923 90.539812,14.6313201 91.003807,14.8943208 C91.4690862,15.15901 92.135972,15.3160505 93.0061767,15.3700859 C93.1542785,15.381484 94.2072561,15.4169448 96.1608293,15.4819562 C98.1169707,15.5457011 99.5427709,15.7031638 100.439942,15.9543442 C101.34011,16.2029916 102.063925,16.7137954 102.612244,17.4842226 C103.163131,18.2542277 103.43836,19.3944599 103.43836,20.9053415 C103.43836,22.0692143 103.336487,23.0481845 103.130172,23.833387 C102.923428,24.619856 102.506518,25.267437 101.879868,25.7757079 C101.251077,26.2869338 100.322659,26.5913053 99.0976096,26.7006427 C97.9286332,26.8057585 96.5606183,26.8576832 94.9952772,26.8576832 C93.6974608,26.8576832 92.6115241,26.8036477 91.7408914,26.6951547 C90.8685465,26.5853952 90.0963629,26.3523674 89.4204882,25.9939604 C88.7484659,25.6385085 88.2232612,25.0888668 87.8551471,24.3539003 C87.4836086,23.6189339 87.3008357,22.652206 87.3008357,21.4499175 C87.3008357,21.3384694 87.30426,21.1814289 87.3171012,20.978796 C87.32609,20.7753187 87.3316545,20.6161675 87.3316545,20.5072523 L89.6507736,20.5072523 C89.6507736,21.7745523 89.7624919,22.7079301 89.9872128,23.3027421 C90.2115056,23.8992427 90.6421135,24.3129516 91.2803207,24.5451351 C91.9180998,24.7764744 92.9128641,24.8942547 94.2620452,24.8942547 L96.2601345,24.8942547 C97.5545265,24.8942547 98.5227523,24.8148902 99.1716605,24.6591161 C99.8218528,24.500387 100.29184,24.1563332 100.583763,23.6265326 C100.873974,23.0979984 101.017796,22.2625599 101.017796,21.1223276 C101.017796,20.1902162 100.933472,19.4902884 100.766536,19.0246549 C100.599173,18.5585992 100.278143,18.2263656 99.8051592,18.0292207 C99.3330314,17.8329201 98.6177771,17.7193612 97.6623925,17.6872777 C96.3102151,17.6332422 94.9901407,17.5737188 93.6974608,17.510396 C92.4043529,17.4470732 91.3017227,17.2693473 90.3929944,16.9746853 C89.4791297,16.6825562 88.7527463,16.1405131 88.2125602,15.3548885 C87.6740863,14.569686 87.401853,13.449717 87.401853,11.993293 C87.401853,10.4625702 87.6916359,9.30587405 88.2741979,8.52278229 C88.8541917,7.74053484 89.666183,7.22128801 90.7097438,6.96841903 C91.7520204,6.71386144 93.1024857,6.58806018 94.7607114,6.58806018 L95.3154509,6.58806018 C96.6440861,6.58806018 97.7415799,6.63449689 98.6092163,6.7273703 C99.4802771,6.82151018 100.247752,7.03385258 100.91421,7.37030763 C101.581096,7.7092956 102.097312,8.24036268 102.46457,8.97068545 C102.834396,9.69931961 103.017169,10.6698468 103.017169,11.893243 L103.017169,12.221255 Z" id="Fill-3" fill="#444C5E"/>
                        <path d="M121.525777,17.4627351 L113.080125,17.4627351 L113.080125,24.7984685 L119.661664,24.7984685 C121.041664,24.7984685 122.059114,24.7233254 122.715299,24.5819046 C123.371056,24.43584 123.850032,24.1044508 124.150088,23.5814046 C124.45314,23.060047 124.602098,22.2203869 124.602098,21.0624242 C124.602098,19.8706895 124.404344,18.9702395 124.006267,18.3678287 C123.607334,17.7666844 122.779933,17.4627351 121.525777,17.4627351 L121.525777,17.4627351 Z M120.680398,8.68450868 L113.080125,8.68450868 L113.080125,15.4330288 L119.844865,15.4330288 C120.93123,15.4330288 121.775324,15.3317123 122.366875,15.1290794 C122.964846,14.9256022 123.384325,14.5650845 123.63216,14.0487927 C123.882563,13.5329231 124.006267,12.7907801 124.006267,11.8257409 C124.006267,10.6065662 123.776409,9.77619347 123.317551,9.33884411 C122.860404,8.90318336 121.981211,8.68450868 120.680398,8.68450868 L120.680398,8.68450868 Z M110.696372,26.764852 L110.696372,6.68393087 L120.991155,6.68393087 C122.291968,6.68393087 123.342377,6.83759416 124.140243,7.14449859 C124.940249,7.45055871 125.530088,7.96516186 125.91404,8.68661944 C126.298847,9.40807702 126.491465,10.4014004 126.491465,11.6670118 C126.491465,12.9621738 126.314257,13.9529643 125.9577,14.6393832 C125.602427,15.327913 124.844796,15.8530699 123.686949,16.2165427 C125.053252,16.5791712 125.967116,17.1148819 126.427259,17.8287408 C126.89425,18.5388002 127.12582,19.5861591 127.12582,20.9661736 C127.12582,22.2300964 126.956316,23.2842096 126.618593,24.1340014 C126.279585,24.9821045 125.701304,25.6322185 124.889313,26.0843431 C124.076465,26.53689 122.975547,26.764852 121.591267,26.764852 L110.696372,26.764852 Z" id="Fill-5" fill="#444C5E"/>
                        <path d="M135.451449,16.9667488 L135.451449,20.1827019 C135.487832,21.5238785 135.635506,22.5361987 135.90089,23.2074202 C136.167131,23.8811746 136.651672,24.3548291 137.358794,24.6254284 C138.064631,24.8943392 139.133446,25.0294278 140.564811,25.0294278 C141.952944,25.0294278 143.0346,24.9880569 143.810208,24.9036265 C144.586244,24.8179297 145.230444,24.6212069 145.744947,24.3003715 C146.256027,23.9812246 146.63955,23.4775974 146.895518,22.789912 C147.146349,22.100538 147.291455,21.155762 147.32313,19.9513627 C147.371926,18.4911393 147.392044,16.2845514 147.392044,13.3379312 C147.392044,11.7417749 147.20071,10.6023869 146.810766,9.90752492 C146.426387,9.2206838 145.831839,8.79515469 145.036114,8.63178191 C144.241244,8.46883128 142.94942,8.38482305 141.161926,8.38482305 L140.325109,8.38482305 C138.989625,8.38482305 137.997001,8.49880406 137.345096,8.72170026 C136.693192,8.94712937 136.228341,9.40094265 135.948403,10.080185 C135.667181,10.7649154 135.513943,11.8397141 135.487832,13.3045812 L135.451449,16.9667488 Z M132.964966,17.0722868 L132.964966,15.8885729 C132.964966,14.2041869 133.018471,12.8423249 133.122485,11.805942 C133.228639,10.7712477 133.495307,9.84589075 133.925487,9.03409266 C134.357379,8.2265161 135.0538,7.59371041 136.018173,7.13609776 C136.977838,6.68017372 138.297485,6.45094525 139.97326,6.45094525 L140.981722,6.45094525 C142.636095,6.45094525 143.973291,6.52144461 145.008719,6.6645541 C146.041151,6.80597499 146.910071,7.09557118 147.620617,7.5358756 C148.331163,7.97575787 148.866213,8.64951229 149.231759,9.56347113 C149.597305,10.4744749 149.777081,11.6982932 149.777081,13.2328154 C149.777081,16.3782691 149.765096,18.7701817 149.736846,20.4055981 C149.70089,21.6615 149.558353,22.6978829 149.303241,23.5172797 C149.048986,24.3396316 148.649197,25.007898 148.096597,25.5229233 C147.549135,26.0345714 146.817187,26.408598 145.90161,26.6433144 C144.986461,26.8797195 143.851728,26.9970777 142.494414,26.9970777 C142.294947,26.9970777 142.000456,26.9848353 141.611368,26.9595062 C141.225704,26.9350214 140.902962,26.9257341 140.64143,26.9257341 C139.334197,26.9257341 138.240983,26.8463695 137.353229,26.6931284 C136.465903,26.5381986 135.718118,26.2524018 135.102596,25.8391151 C134.486219,25.4249841 134.005531,24.8305942 133.658391,24.0479246 C133.315531,23.2686322 133.111784,22.2516683 133.039017,20.9978772 C132.988936,20.1024931 132.964966,18.7929779 132.964966,17.0722868 L132.964966,17.0722868 Z" id="Fill-7" fill="#444C5E"/>
                        <path d="M158.173893,16.9667488 L158.173893,20.1827019 C158.20728,21.5238785 158.356666,22.5361987 158.620767,23.2074202 C158.885295,23.8811746 159.371976,24.3548291 160.079098,24.6254284 C160.784507,24.8943392 161.853322,25.0294278 163.283403,25.0294278 C164.674104,25.0294278 165.759613,24.9880569 166.532652,24.9036265 C167.309544,24.8179297 167.952032,24.6212069 168.466536,24.3003715 C168.977187,23.9812246 169.361995,23.4775974 169.61625,22.789912 C169.867081,22.100538 170.010475,21.155762 170.04429,19.9513627 C170.093086,18.4911393 170.113204,16.2845514 170.113204,13.3379312 C170.113204,11.7417749 169.922727,10.6023869 169.531926,9.90752492 C169.143266,9.2206838 168.554284,8.79515469 167.760698,8.63178191 C166.964972,8.46883128 165.673577,8.38482305 163.881802,8.38482305 L163.044985,8.38482305 C161.711641,8.38482305 160.715593,8.49880406 160.064544,8.72170026 C159.413068,8.94712937 158.948217,9.40094265 158.669563,10.080185 C158.388769,10.7649154 158.235531,11.8397141 158.20728,13.3045812 L158.173893,16.9667488 Z M155.686554,17.0722868 L155.686554,15.8885729 C155.686554,14.2041869 155.739203,12.8423249 155.841077,11.805942 C155.949371,10.7712477 156.215183,9.84589075 156.644507,9.03409266 C157.079824,8.2265161 157.77068,7.59371041 158.738049,7.13609776 C159.698999,6.68017372 161.017361,6.45094525 162.695704,6.45094525 L163.702882,6.45094525 C165.355543,6.45094525 166.695735,6.52144461 167.731163,6.6645541 C168.757603,6.80597499 169.631232,7.09557118 170.341349,7.5358756 C171.051895,7.97575787 171.587801,8.64951229 171.953347,9.56347113 C172.319749,10.4744749 172.499954,11.6982932 172.499954,13.2328154 C172.499954,16.3782691 172.484544,18.7701817 172.458434,20.4055981 C172.42205,21.6615 172.277801,22.6978829 172.023973,23.5172797 C171.770574,24.3396316 171.371213,25.007898 170.819042,25.5229233 C170.270295,26.0345714 169.536207,26.408598 168.622342,26.6433144 C167.707621,26.8797195 166.569892,26.9970777 165.216002,26.9970777 C165.017392,26.9970777 164.720332,26.9848353 164.334668,26.9595062 C163.949005,26.9350214 163.621554,26.9257341 163.360878,26.9257341 C162.056641,26.9257341 160.961716,26.8463695 160.074817,26.6931284 C159.188347,26.5381986 158.437994,26.2524018 157.823329,25.8391151 C157.205667,25.4249841 156.728403,24.8305942 156.379551,24.0479246 C156.036263,23.2686322 155.831232,22.2516683 155.763174,20.9978772 C155.709669,20.1024931 155.686554,18.7929779 155.686554,17.0722868 L155.686554,17.0722868 Z" id="Fill-9" fill="#444C5E"/>
                        <g id="Group-13" fill="#FD0087">
                            <path d="M29.5018654,31.6889583 C29.5018654,32.6079829 28.7480875,33.350126 27.814961,33.350126 L1.68527788,33.350126 C0.753435468,33.350126 8.56079387e-05,32.6079829 8.56079387e-05,31.6889583 L8.56079387e-05,1.76218863 C8.56079387e-05,0.842319666 0.753435468,0.0972215803 1.68527788,0.0972215803 L27.814961,0.0972215803 C28.7480875,0.0972215803 29.5018654,0.842319666 29.5018654,1.76218863 L29.5018654,31.6889583 Z" id="Fill-11"/>
                        </g>
                        <path d="M18.5035567,15.24572 C16.1257962,15.24572 14.1979054,13.3456143 14.1979054,11.0018271 C14.1979054,8.65381824 16.1257962,6.75075752 18.5035567,6.75075752 C20.8804611,6.75075752 22.8083519,8.65381824 22.8083519,11.0018271 C22.8083519,13.3456143 20.8804611,15.24572 18.5035567,15.24572 M9.29342661,15.2592289 C6.91566611,15.2592289 4.98649121,13.3570124 4.98649121,11.0119587 C4.98649121,8.66521634 6.91566611,6.76595499 9.29342661,6.76595499 C11.6711871,6.76595499 13.5986498,8.66521634 13.5986498,11.0119587 C13.5986498,13.3570124 11.6711871,15.2592289 9.29342661,15.2592289 M22.0455852,18.964456 C21.3988172,18.0327668 20.7006844,17.1833972 19.9931348,16.4239459 C22.4184077,15.7763649 24.2016211,13.5925732 24.2016211,10.9997163 C24.2016211,8.39714989 22.4059946,6.20618158 19.9678805,5.56704362 L21.504971,3.37903037 L13.880728,4.28750124 L5.95000856,3.37903037 L7.53717974,5.64134235 C5.23475423,6.36491069 3.56582747,8.48875685 3.56582747,10.9997163 C3.56582747,13.7061321 5.50655944,15.965489 8.09149115,16.4986668 C7.17248993,18.2940788 6.95076536,20.5483699 8.45746509,23.2248129 C10.020666,26.0038388 12.47847,27.6143482 15.0642578,28.5249299 L15.0629736,30.0649399 L18.5138296,30.0649399 L18.5138296,29.3696558 C22.486038,29.9695336 25.937322,29.3806317 25.937322,29.3806317 C25.937322,29.3806317 25.937322,24.567678 22.0455852,18.964456" id="Fill-14" fill="#FEFEFE"/>
                        <path d="M9.25969708,8.78308115 C8.2580842,8.78308115 7.44780506,9.67086657 7.44780506,10.767195 C7.44780506,11.8609906 8.2580842,12.7504646 9.25969708,12.7504646 C10.2604539,12.7504646 11.0711611,11.8609906 11.0711611,10.767195 C11.0711611,9.67086657 10.2604539,8.78308115 9.25969708,8.78308115" id="Fill-16" fill="#FEFEFE"/>
                        <path d="M18.7053774,8.78308115 C17.7050486,8.78308115 16.8930573,9.67086657 16.8930573,10.7650843 C16.8930573,11.8609906 17.7050486,12.7483538 18.7053774,12.7483538 C19.7057062,12.7483538 20.5181255,11.8609906 20.5181255,10.7650843 C20.5181255,9.67086657 19.7057062,8.78308115 18.7053774,8.78308115" id="Fill-18" fill="#FEFEFE"/>
                    </g>
                </g>
            </g>
        </g>
    </g>
<style xmlns="" class="darkreader darkreader--fallback">html, body, body :not(iframe) {
    background-color: #181a1b !important;
    border-color: #776e62 !important;
    color: #e8e6e3 !important;
}</style></svg>